<svg width="297" height="177" viewBox="0 0 297 177" fill="none" xmlns="http://www.w3.org/2000/svg">
<g clip-path="url(#clip0)">
<path d="M227.39 174.998C223.588 171.796 221.278 166.736 221.884 161.811C222.49 156.885 226.241 152.357 231.107 151.311C235.974 150.266 241.521 153.161 242.999 157.899C243.812 148.764 244.75 139.245 249.622 131.465C254.034 124.421 261.676 119.38 269.958 118.479C278.24 117.577 286.959 120.983 292.125 127.499C297.29 134.015 298.554 143.487 294.937 150.968C292.272 156.479 287.362 160.581 282.218 163.917C265.596 174.608 245.659 178.956 226.077 176.16L227.39 174.998Z" fill="#F2F2F2"/>
<path d="M283.935 121.171C277.101 126.72 270.832 132.925 265.218 139.698C256.432 150.261 249.323 162.104 244.137 174.814C243.758 175.741 245.268 176.145 245.644 175.228C254.128 154.571 267.673 136.364 285.039 122.272C285.819 121.639 284.708 120.544 283.935 121.171Z" fill="white"/>
<path d="M95.6091 174.128C100.832 169.729 104.004 162.78 103.172 156.015C102.34 149.25 97.1874 143.031 90.5036 141.594C83.8198 140.158 76.2007 144.134 74.1706 150.643C73.0533 138.095 71.7659 125.021 65.0734 114.336C59.0135 104.66 48.5176 97.7368 37.1425 96.4982C25.7673 95.2596 13.7908 99.9376 6.69652 108.887C-0.39774 117.837 -2.13474 130.848 2.83389 141.123C6.49411 148.692 13.2375 154.325 20.3029 158.908C42.8441 173.529 70.8063 179.627 97.4128 175.724" fill="#F2F2F2"/>
<path d="M17.9452 100.197C27.3311 107.818 35.9417 116.341 43.6524 125.643C51.3643 134.936 58.1538 144.952 63.9255 155.552C67.1517 161.497 70.0498 167.614 72.607 173.875C73.1283 175.149 71.0537 175.703 70.5381 174.444C66.0087 163.406 60.4051 152.837 53.8074 142.889C47.2418 132.977 39.7272 123.723 31.369 115.258C26.6416 110.472 21.6537 105.949 16.4281 101.709C15.357 100.84 16.8829 99.3346 17.9452 100.197L17.9452 100.197Z" fill="white"/>
<path d="M213.191 176.613H88.5879V49.1725C88.5879 22.0586 110.717 0 137.917 0H163.862C191.062 0 213.191 22.0586 213.191 49.1725V176.613Z" fill="#F2F2F2"/>
<path d="M187.247 176.613H88.5879V49.1725C88.5607 38.7831 91.8611 28.6562 98.0085 20.2664C98.2352 19.9585 98.4612 19.6546 98.6943 19.354C101.668 15.4665 105.206 12.0429 109.193 9.19607C109.418 9.03273 109.644 8.87222 109.874 8.71171C113.21 6.41045 116.819 4.52921 120.618 3.11082C120.843 3.02557 121.073 2.94017 121.303 2.85825C124.739 1.63594 128.301 0.798661 131.923 0.361878C132.147 0.331303 132.378 0.307377 132.608 0.283451C136.138 -0.0927339 139.697 -0.0927339 143.227 0.283451C143.457 0.307377 143.687 0.3313 143.915 0.362205C147.536 0.799017 151.096 1.63619 154.532 2.85826C154.761 2.94018 154.991 3.02558 155.217 3.11099C158.97 4.51149 162.536 6.36466 165.836 8.62914C166.066 8.78616 166.295 8.94667 166.521 9.10718C168.756 10.6973 170.855 12.4688 172.797 14.4035C174.354 15.9554 175.806 17.6096 177.141 19.3551C177.373 19.6546 177.599 19.9585 177.826 20.2659C183.973 28.6558 187.274 38.7829 187.247 49.1725V176.613Z" fill="#CCCCCC"/>
<path d="M179.224 119.613C182.241 119.613 184.686 117.176 184.686 114.169C184.686 111.162 182.241 108.724 179.224 108.724C176.208 108.724 173.762 111.162 173.762 114.169C173.762 117.176 176.208 119.613 179.224 119.613Z" fill="#5A8DEE"/>
<path d="M202.984 172.795H198.799L196.807 156.704L202.985 156.704L202.984 172.795Z" fill="#FFB8B8"/>
<path d="M195.809 171.603H203.88V176.669H190.727C190.727 176.004 190.858 175.345 191.114 174.731C191.369 174.116 191.743 173.558 192.215 173.087C192.687 172.617 193.248 172.244 193.864 171.989C194.481 171.734 195.142 171.603 195.809 171.603Z" fill="#2F2E41"/>
<path d="M223.808 172.795H219.623L217.631 156.704L223.809 156.704L223.808 172.795Z" fill="#FFB8B8"/>
<path d="M216.633 171.603H224.705V176.669H211.551C211.551 176.004 211.682 175.345 211.938 174.731C212.193 174.116 212.568 173.558 213.04 173.087C213.511 172.617 214.072 172.244 214.688 171.989C215.305 171.734 215.966 171.603 216.633 171.603Z" fill="#2F2E41"/>
<path d="M181.989 115.247C181.687 114.805 181.487 114.302 181.402 113.775C181.317 113.247 181.349 112.707 181.496 112.193C181.643 111.679 181.901 111.204 182.252 110.8C182.603 110.396 183.039 110.074 183.528 109.856L197.756 70.7675L204.756 74.5758L188.512 111.93C188.824 112.774 188.815 113.703 188.487 114.541C188.158 115.379 187.532 116.068 186.728 116.477C185.924 116.886 184.998 116.986 184.124 116.76C183.25 116.533 182.491 115.995 181.989 115.247Z" fill="#FFB8B8"/>
<path d="M221.67 122.592C221.205 122.326 220.804 121.962 220.495 121.525C220.187 121.088 219.978 120.589 219.884 120.063C219.79 119.537 219.812 118.996 219.95 118.48C220.088 117.963 220.338 117.483 220.682 117.074L216.275 75.7248L224.242 76.0876L226.074 116.76C226.726 117.382 227.127 118.221 227.2 119.117C227.273 120.014 227.014 120.907 226.471 121.626C225.928 122.345 225.139 122.84 224.255 123.018C223.37 123.196 222.45 123.045 221.67 122.592Z" fill="#FFB8B8"/>
<path d="M208.96 63.5273C213.591 63.5273 217.345 59.7853 217.345 55.1693C217.345 50.5533 213.591 46.8113 208.96 46.8113C204.33 46.8113 200.576 50.5533 200.576 55.1693C200.576 59.7853 204.33 63.5273 208.96 63.5273Z" fill="#FFB8B8"/>
<path d="M221.616 113.188H196.338L196.369 112.992C196.414 112.699 200.874 83.5774 197.585 74.0502C197.255 73.1139 197.284 72.0891 197.666 71.1729C198.049 70.2567 198.758 69.5139 199.657 69.0875H199.657C204.358 66.8806 213.383 64.163 221 70.7581C222.121 71.7445 222.996 72.9774 223.556 74.3592C224.117 75.741 224.347 77.2338 224.229 78.7196L221.616 113.188Z" fill="#5A8DEE"/>
<path d="M201.193 87.8811L189.813 85.5796L195.147 72.9786C195.467 71.7581 196.259 70.7137 197.349 70.0744C198.44 69.4351 199.741 69.2531 200.966 69.5684C202.191 69.8837 203.24 70.6704 203.884 71.7561C204.528 72.8419 204.714 74.1378 204.401 75.3598L201.193 87.8811Z" fill="#5A8DEE"/>
<path d="M215.769 92.1544L215.085 76.5208C214.566 73.5819 216.254 70.8037 218.849 70.3496C221.446 69.8972 223.981 71.9354 224.502 74.8959L227.074 89.5039L215.769 92.1544Z" fill="#5A8DEE"/>
<path d="M220.776 111.316C224.843 126.758 225.287 146.39 224.189 167.805L218.727 167.125L208.827 126.289L203.365 167.805L197.22 167.465C195.385 144.995 193.597 125.706 196.538 113.018L220.776 111.316Z" fill="#2F2E41"/>
<path d="M214.485 61.6286C212.921 63.2895 210.016 62.3979 209.812 60.1288C209.796 59.9527 209.797 59.7754 209.815 59.5995C209.921 58.5944 210.503 57.6819 210.364 56.6207C210.332 56.3565 210.233 56.1048 210.077 55.8894C208.83 54.2256 205.904 56.6336 204.728 55.1274C204.007 54.2038 204.855 52.7497 204.301 51.7175C203.571 50.3551 201.407 51.0271 200.05 50.281C198.54 49.4509 198.63 47.1417 199.624 45.7372C200.836 44.0243 202.961 43.1103 205.06 42.9786C207.159 42.8468 209.243 43.4123 211.202 44.1735C213.428 45.0383 215.636 46.2335 217.006 48.1847C218.672 50.5576 218.832 53.7478 217.999 56.5225C217.492 58.2104 215.762 60.2723 214.485 61.6286Z" fill="#2F2E41"/>
<path d="M286.752 176.832H34.714C34.6064 176.831 34.5034 176.788 34.4274 176.712C34.3514 176.636 34.3087 176.534 34.3087 176.426C34.3087 176.319 34.3514 176.216 34.4274 176.14C34.5034 176.064 34.6064 176.021 34.714 176.021H286.752C286.86 176.021 286.963 176.064 287.039 176.14C287.115 176.216 287.158 176.319 287.158 176.426C287.158 176.534 287.115 176.636 287.039 176.712C286.963 176.788 286.86 176.831 286.752 176.832Z" fill="#3F3D56"/>
<path d="M160.107 139.691H115.728C115.143 139.694 114.581 139.466 114.165 139.056C113.749 138.647 113.513 138.09 113.509 137.508V38.7647C113.513 38.1821 113.749 37.625 114.165 37.2158C114.581 36.8065 115.143 36.5784 115.728 36.5816H160.107C160.691 36.5784 161.253 36.8065 161.669 37.2158C162.085 37.625 162.321 38.1821 162.326 38.7647V137.508C162.321 138.09 162.085 138.647 161.669 139.056C161.253 139.466 160.691 139.694 160.107 139.691Z" fill="white"/>
<path d="M162.326 68.5317H113.509V69.2123H162.326V68.5317Z" fill="#CCCCCC"/>
<path d="M162.497 107.363H113.679V108.043H162.497V107.363Z" fill="#CCCCCC"/>
<path d="M129.553 36.5816H128.871V140.031H129.553V36.5816Z" fill="#CCCCCC"/>
<path d="M146.622 36.5816H145.94V140.031H146.622V36.5816Z" fill="#CCCCCC"/>
</g>
<defs>
<clipPath id="clip0">
<rect width="297" height="177" fill="white"/>
</clipPath>
</defs>
</svg>
