<svg width="204" height="56" viewBox="0 0 204 56" fill="none" xmlns="http://www.w3.org/2000/svg">
<path d="M64.44 53C63.96 53 63.528 52.832 63.144 52.496C62.808 52.112 62.64 51.68 62.64 51.2V4.40001C62.64 3.87201 62.808 3.44 63.144 3.10401C63.528 2.768 63.96 2.6 64.44 2.6H84.6C90.744 2.6 95.568 4.016 99.072 6.84801C102.624 9.68001 104.4 13.808 104.4 19.232C104.4 24.608 102.648 28.664 99.144 31.4C95.64 34.088 90.792 35.432 84.6 35.432H76.032V51.2C76.032 51.728 75.84 52.16 75.456 52.496C75.12 52.832 74.688 53 74.16 53H64.44ZM84.24 25.496C86.352 25.496 88.008 24.968 89.208 23.912C90.408 22.808 91.008 21.2 91.008 19.088C91.008 17.12 90.432 15.56 89.28 14.408C88.176 13.208 86.496 12.608 84.24 12.608H75.816V25.496H84.24Z" fill="#5A8DEE"/>
<path d="M113.096 53C112.616 53 112.184 52.832 111.8 52.496C111.464 52.112 111.296 51.68 111.296 51.2V4.40001C111.296 3.87201 111.464 3.44 111.8 3.10401C112.184 2.768 112.616 2.6 113.096 2.6H132.68C138.968 2.6 143.864 4.04 147.368 6.92C150.92 9.752 152.696 13.784 152.696 19.016C152.696 22.376 151.904 25.232 150.32 27.584C148.736 29.936 146.552 31.736 143.768 32.984L153.632 50.696C153.776 50.984 153.848 51.248 153.848 51.488C153.848 51.872 153.68 52.232 153.344 52.568C153.056 52.856 152.72 53 152.336 53H142.76C141.368 53 140.384 52.352 139.808 51.056L131.6 35.216H124.256V51.2C124.256 51.728 124.064 52.16 123.68 52.496C123.344 52.832 122.912 53 122.384 53H113.096ZM132.536 24.992C134.744 24.992 136.424 24.464 137.576 23.408C138.728 22.304 139.304 20.792 139.304 18.872C139.304 16.952 138.728 15.44 137.576 14.336C136.472 13.184 134.792 12.608 132.536 12.608H124.256V24.992H132.536Z" fill="#5A8DEE"/>
<path d="M181.459 53.72C174.691 53.72 169.363 52.064 165.475 48.752C161.587 45.44 159.523 40.568 159.283 34.136C159.235 32.744 159.211 30.68 159.211 27.944C159.211 25.16 159.235 23.072 159.283 21.68C159.523 15.344 161.611 10.472 165.547 7.06401C169.531 3.60801 174.835 1.88 181.459 1.88C188.083 1.88 193.387 3.60801 197.371 7.06401C201.355 10.472 203.443 15.344 203.635 21.68C203.731 24.464 203.779 26.552 203.779 27.944C203.779 29.288 203.731 31.352 203.635 34.136C203.395 40.568 201.331 45.44 197.443 48.752C193.555 52.064 188.227 53.72 181.459 53.72ZM181.459 43.352C184.099 43.352 186.187 42.56 187.723 40.976C189.307 39.392 190.147 36.968 190.243 33.704C190.339 30.92 190.387 28.952 190.387 27.8C190.387 26.552 190.339 24.584 190.243 21.896C190.147 18.632 189.307 16.208 187.723 14.624C186.139 13.04 184.051 12.248 181.459 12.248C178.867 12.248 176.779 13.04 175.195 14.624C173.659 16.208 172.819 18.632 172.675 21.896C172.627 23.24 172.603 25.208 172.603 27.8C172.603 30.344 172.627 32.312 172.675 33.704C172.819 36.968 173.659 39.392 175.195 40.976C176.731 42.56 178.819 43.352 181.459 43.352Z" fill="#5A8DEE"/>
<path d="M25.728 55.296C18.048 55.296 11.9296 53.5296 7.3728 49.9968C2.816 46.464 0.384 41.3184 0.0767998 34.56C0.0255999 33.1776 0 30.9504 0 27.8784C0 24.7552 0.0255999 22.4768 0.0767998 21.0432C0.2304 16.64 1.3824 12.8512 3.5328 9.6768C5.7344 6.5024 8.7296 4.096 12.5184 2.4576C16.3072 0.8192 20.7104 0 25.728 0C30.7456 0 35.1488 0.8192 38.9376 2.4576C42.7264 4.096 45.696 6.5024 47.8464 9.6768C50.048 12.8512 51.2256 16.64 51.3792 21.0432C51.4816 23.9104 51.5328 26.1888 51.5328 27.8784C51.5328 29.568 51.4816 31.7952 51.3792 34.56C51.072 41.3184 48.64 46.464 44.0832 49.9968C39.5264 53.5296 33.408 55.296 25.728 55.296ZM25.728 40.32C27.4688 40.32 28.8256 39.808 29.7984 38.784C30.8224 37.76 31.36 36.1984 31.4112 34.0992C31.5136 31.1296 31.5648 28.9536 31.5648 27.5712C31.5648 26.0864 31.5136 23.9616 31.4112 21.1968C31.36 19.0976 30.8224 17.536 29.7984 16.512C28.7744 15.488 27.4176 14.976 25.728 14.976C24.0384 14.976 22.6816 15.488 21.6576 16.512C20.6336 17.536 20.096 19.0976 20.0448 21.1968C19.9936 22.5792 19.968 24.704 19.968 27.5712C19.968 30.4384 19.9936 32.6144 20.0448 34.0992C20.096 36.1984 20.608 37.76 21.5808 38.784C22.6048 39.808 23.9872 40.32 25.728 40.32Z" fill="#5A8DEE"/>
</svg>
